<svg width="42" height="74" viewBox="0 0 42 74" fill="none" xmlns="http://www.w3.org/2000/svg">
<path d="M36.589 1H5.41101C3.20187 1 1.41101 2.79086 1.41101 5V9.498C1.41101 11.7071 3.20187 13.498 5.41101 13.498H36.589C38.7982 13.498 40.589 11.7071 40.589 9.498V5C40.589 2.79086 38.7982 1 36.589 1Z" stroke="#F7BF24" stroke-width="2" stroke-linecap="round" stroke-linejoin="round"/>
<path d="M5.81506 7.24902H36.1851" stroke="#F7BF24" stroke-width="2" stroke-linecap="round" stroke-linejoin="round"/>
<path d="M9.021 13.498C9.01089 14.9808 9.5901 16.4069 10.6312 17.4626C11.6724 18.5184 13.0902 19.1174 14.573 19.128H27.427C28.9097 19.1174 30.3276 18.5184 31.3688 17.4626C32.4099 16.4069 32.9891 14.9808 32.979 13.498V13.498" stroke="#F7BF24" stroke-width="2" stroke-linecap="round" stroke-linejoin="round"/>
<path d="M25.4781 19.125V69.075C25.4066 70.1634 24.9077 71.1794 24.0902 71.9015C23.2728 72.6236 22.203 72.9933 21.1141 72.93C20.0254 72.9931 18.9559 72.6232 18.1386 71.9011C17.3214 71.179 16.8226 70.1632 16.7511 69.075V19.125" stroke="#F7BF24" stroke-width="2" stroke-linecap="round" stroke-linejoin="round"/>
</svg>
