<svg width="177" height="60" viewBox="0 0 177 60" fill="none" xmlns="http://www.w3.org/2000/svg">
<path d="M65.7764 2.71611C61.359 2.70798 57.0243 3.91288 53.2454 6.1993C49.4666 8.48571 46.3889 11.7657 44.3484 15.6813C40.552 23.2289 34.0596 29.0779 26.1554 32.0714C24.0496 32.9001 21.8173 33.3622 19.5554 33.4376C13.6284 33.4577 7.83743 31.6633 2.96143 28.2957C6.74824 37.0048 13.0222 44.4035 20.9974 49.5653C28.9726 54.727 38.2945 57.4222 47.7954 57.3132C58.635 57.3565 69.1882 53.8367 77.8294 47.2962C89.5664 37.9219 89.0234 26.6087 89.0234 26.6087C89.0244 13.4116 79.0774 2.71611 65.7764 2.71611Z" stroke="#F7BF24" stroke-width="4" stroke-linecap="round" stroke-linejoin="round"/>
<path d="M158.347 33.4316C156.085 33.3577 153.853 32.8959 151.747 32.0664C143.845 29.0745 137.354 23.2277 133.557 15.6823C131.517 11.7669 128.439 8.487 124.66 6.20061C120.881 3.91422 116.547 2.70918 112.129 2.71708C98.8294 2.71708 88.8814 13.4107 88.8814 26.6027C88.8814 26.6027 88.3344 37.9129 100.075 47.2902C108.717 53.8297 119.27 57.3493 130.109 57.3072C139.61 57.4154 148.931 54.7201 156.905 49.5589C164.88 44.3976 171.154 36.9998 174.941 28.2917C170.066 31.6594 164.274 33.4532 158.347 33.4316Z" stroke="#F7BF24" stroke-width="4" stroke-linecap="round" stroke-linejoin="round"/>
</svg>
