<svg width="98" height="165" viewBox="0 0 98 165" fill="none" xmlns="http://www.w3.org/2000/svg">
<path d="M49.4855 76.7522C50.8852 76.7523 52.0197 77.8863 52.0197 79.2844C52.0196 80.6825 50.8851 81.8166 49.4855 81.8167C48.0857 81.8167 46.9513 80.6826 46.9513 79.2844C46.9513 77.8862 48.0857 76.7522 49.4855 76.7522Z" fill="#BE9359" stroke="#F7BF24"/>
<path d="M38.0433 19.6483C38.0446 15.6963 36.7182 11.8583 34.2767 8.74955C31.8352 5.64079 28.4199 3.44132 24.5784 2.50371C20.737 1.56611 16.6917 1.94469 13.0912 3.57875C9.4907 5.21281 6.54342 8.00771 4.72184 11.5154C2.90026 15.0232 2.30987 19.0405 3.04533 22.9236C3.78078 26.8066 5.79947 30.3305 8.77781 32.9302C11.7561 35.5299 15.5216 37.0549 19.4706 37.2608C23.4197 37.4667 27.3235 36.3415 30.5563 34.0656C32.8687 32.4377 34.7558 30.2783 36.0587 27.7693C37.3616 25.2603 38.0423 22.4751 38.0433 19.6483Z" stroke="#F7BF24" stroke-width="4" stroke-linecap="round" stroke-linejoin="round"/>
<path d="M95.8263 19.6512C95.8251 16.1647 94.7896 12.7568 92.8506 9.85837C90.9117 6.95995 88.1563 4.70116 84.933 3.36756C81.7096 2.03397 78.163 1.68544 74.7415 2.36606C71.32 3.04669 68.1772 4.72591 65.7105 7.1914C63.2439 9.65689 61.564 12.798 60.8833 16.2175C60.2027 19.637 60.5518 23.1814 61.8866 26.4027C63.2213 29.6239 65.4818 32.3773 68.3822 34.3148C71.2826 36.2523 74.6927 37.2868 78.1813 37.2876C80.4988 37.2883 82.7938 36.8325 84.935 35.9464C87.0762 35.0603 89.0217 33.7612 90.6604 32.1234C92.299 30.4855 93.5987 28.541 94.4851 26.401C95.3715 24.261 95.8273 21.9674 95.8263 19.6512V19.6512Z" stroke="#F7BF24" stroke-width="4" stroke-linecap="round" stroke-linejoin="round"/>
<path d="M78.5743 148.863C78.5723 145.412 78.0858 141.978 77.1293 138.661L59.8293 78.6546L53.7703 57.6172C52.6269 58.0093 51.4261 58.2082 50.2173 58.2059C49.9074 58.2083 49.5976 58.194 49.2893 58.1629V58.1629C47.4646 58.0052 45.707 57.4003 44.1721 56.4018C42.6371 55.4033 41.3722 54.042 40.4893 52.4384L30.3743 34.1924C27.4322 36.2142 23.9448 37.2947 20.3743 37.2905L38.7493 78.6655L49.2973 102.318L76.0323 162.282C77.7082 158.006 78.5703 153.455 78.5743 148.863V148.863Z" stroke="#F7BF24" stroke-width="4" stroke-linecap="round" stroke-linejoin="round"/>
<path d="M80.4523 37.1357C76.7326 37.6224 72.9547 36.9077 69.6703 35.0959L53.7773 57.6154L60.2903 80.2287L80.4523 37.1357Z" stroke="#F7BF24" stroke-width="4" stroke-linecap="round" stroke-linejoin="round"/>
<path d="M49.4503 102.646L38.7503 78.6609L21.2653 138.661C18.9921 146.439 19.382 154.754 22.3733 162.285L49.4503 102.646Z" stroke="#F7BF24" stroke-width="4" stroke-linecap="round" stroke-linejoin="round"/>
</svg>
